<svg xmlns="http://www.w3.org/2000/svg" viewBox="0 0 2827 575"><path fill="#FFFFFF" fill-rule="evenodd" d="M1295.5 402L1288.5 404.5L1282 410L1277 417.5L1276 427L1275 428.5L1275 573L1276.5 574.5L1324 574.5L1325.5 573L1325.5 421.5L1322 413.5L1315 406L1307 402ZM1198.5 333L1196.5 334.5L1196 337L1193 341.5L1194 346L1196.5 349.5L1206 349.5L1208.5 347L1209.5 339.5L1206 334L1204 333ZM1344.5 331.5L1344 330.5L1342.5 330.5L1339.5 332L1337.5 335L1333 338L1329.5 338L1325 340L1319.5 340L1310 343L1303.5 343L1299 345L1294.5 345L1286 348L1279.5 348L1274 350L1262.5 350L1256.5 347L1253 344L1251 344L1261 363.5L1262.5 364.5L1268 364.5L1269.5 363.5L1280 362.5L1289.5 359.5L1295 359.5L1300.5 357.5L1306 357.5L1315.5 354.5L1320 354.5L1324.5 352.5L1330 352.5L1333 351.5L1337 349ZM1259.5 311.5L1257 313L1254 318.5L1254 322L1253 323.5L1253 331L1254 332.5L1254 335L1258 340.5L1265.5 344.5L1268 344.5L1269.5 343L1268.5 335.5L1266.5 332L1266.5 329.5L1263.5 322L1263.5 318.5L1261 311.5ZM1275.5 306L1267.5 309L1267 311L1269 314.5L1269 317L1271 321.5L1275 338L1277.5 342.5L1282 342.5L1289 340L1289.5 338.5L1283.5 320L1283.5 316.5L1281.5 313L1280.5 307.5L1279 306ZM1291.5 303L1287.5 304.5L1287 308L1294 328.5L1295 335L1297.5 338.5L1305 337.5L1308 336L1308.5 331.5L1305.5 325L1305.5 321.5L1303.5 317L1303.5 313.5L1300.5 307L1300.5 304.5L1298 302.5ZM1307.5 301.5L1307 304L1308 305.5L1308 308L1310 311.5L1310 315L1312 319.5L1312 322L1314 325.5L1314 329L1316.5 334L1318 334.5L1319.5 333.5L1328 332L1328.5 329.5L1327.5 328L1327.5 325.5L1325.5 321L1325.5 318.5L1322.5 311L1320 300.5L1318 299L1314.5 299ZM1327.5 298.5L1327 300L1331 312.5L1331 316L1333 319.5L1333 324L1334.5 326.5L1336 326.5L1340.5 323L1354 317L1357.5 310.5L1355.5 305.5L1352 301.5L1343.5 301L1333 298ZM1337.5 286.5L1332 274.5L1324.5 274L1319 276L1313.5 276L1303 279L1298.5 279L1292 281L1286.5 281L1277 284L1271.5 284L1265 286L1260.5 286L1250 289L1244.5 289L1239 291L1232.5 291L1229.5 292.5L1229 296L1238 314.5L1242 325L1246 331.5L1246.5 328.5L1245.5 325.5L1246.5 324L1246.5 318.5L1248 315.5L1254.5 307L1260.5 303.5L1263 303.5L1272.5 300.5L1277 300.5L1281.5 298.5L1287 298.5L1296.5 295.5L1302 295.5L1307.5 293.5L1314 293.5L1322.5 290.5L1337 291.5ZM1485 234.5L1482.5 234L1476 237L1465.5 240L1457 244L1451.5 245L1448 247L1445.5 247L1441 249L1438.5 249L1431 252L1417.5 255L1406 259L1402.5 259L1398 261L1390.5 262L1385 264L1369.5 266L1358 269L1352.5 269L1344.5 271.5L1343 275L1349.5 291L1355 293.5L1361 298L1365 304.5L1366 314L1363 319.5L1358 325.5L1358 328L1356 330.5L1356 333L1354 335.5L1353 340L1346 355L1343.5 358L1340 360L1324.5 362L1316 365L1310.5 365L1305 367L1299.5 367L1289 370L1283.5 370L1278 372L1268.5 373L1264 375L1258.5 375L1255 373L1253 368.5L1252 368L1251.5 365.5L1250 364L1234.5 333L1234.5 331.5L1232.5 329L1229.5 320.5L1227.5 318L1218 295.5L1213.5 295L1212 296L1207.5 296L1202 298L1192.5 299L1186 301L1180.5 301L1174 303L1151.5 306L1144 308.5L1144.5 312L1186 353.5L1189 355L1218 384L1222 390.5L1224.5 392.5L1225.5 396L1228.5 399.5L1235 414.5L1235 417L1237 420.5L1238 427L1240 431.5L1240 436L1242 440.5L1242 448L1244 453.5L1244 459L1245 460.5L1245 472L1246 473.5L1246.5 574L1263 574.5L1264.5 573L1264.5 430.5L1265.5 429L1265.5 420.5L1266.5 419L1266.5 416.5L1271 407.5L1278 399.5L1285.5 394.5L1290.5 392.5L1295 392.5L1296.5 391.5L1306 391.5L1307.5 392.5L1310 392.5L1321 398L1324.5 400.5L1327 404.5L1330 407L1335 417.5L1335 420L1336 421.5L1336 573L1337.5 574.5L1354.5 574L1355.5 571L1354.5 569L1354.5 469.5L1355.5 468L1355.5 462.5L1357.5 456L1357.5 446.5L1359.5 440L1359.5 433.5L1362.5 425L1362.5 420.5L1364.5 416L1364.5 412.5L1369.5 397.5L1374.5 387L1376.5 380.5L1387.5 361L1397.5 347L1400.5 344.5L1414.5 326L1418.5 322.5L1420.5 319L1425.5 314.5L1427.5 311L1432.5 306.5L1439.5 297L1443.5 293.5L1445.5 290L1450.5 285.5L1452.5 282L1460.5 273.5L1477 251L1485 236ZM1206 326.5L1216.5 336.5L1217 343L1210 354.5L1203.5 355L1202 356L1193.5 356L1189 352L1185.5 345L1185.5 340.5L1193 329.5L1196.5 327.5ZM651.5 166.5L650 169.5L650 333L651 334.5L651 512L650 513.5L650 559L733.5 559L733.5 434.5L735.5 430.5L739 430.5L740.5 429.5L846 429.5L850 432.5L855 439.5L865 450L871 458.5L880 468L886 476.5L890 480L892 483.5L895 486L897 489.5L908 501.5L917 513.5L921 517L923 520.5L926 523L928 526.5L931 529L933 532.5L942 542L944 545.5L955.5 559L1043 559.5L1043 530.5L958.5 431L959.5 429.5L972 429.5L973.5 428.5L978 428.5L992 424.5L1003 419L1012.5 412.5L1028.5 395.5L1036.5 382L1040.5 371L1041.5 363.5L1042.5 362L1042.5 291.5L1043.5 290L1043.5 245.5L1042.5 244L1042.5 233.5L1041.5 232L1040.5 224.5L1036.5 213.5L1025.5 196L1013.5 184L1001 175.5L986 169L978.5 168L977 167L972.5 167L971 166ZM733.5 251.5L734.5 250.5L956 250.5L958 252.5L958 343L956 345L736.5 345L733.5 343ZM2425.5 165.5L2425.5 559.5L2508.5 559L2508.5 406.5L2510.5 404.5L2741 404.5L2743 407.5L2743 559L2826.5 559L2826 165L2743 165.5L2743 187L2742 188.5L2743 318L2741 320L2510.5 320L2508.5 318L2508.5 165.5ZM2004 188L2002 191.5L1998 195L1992.5 202.5L1988 210.5L1984 220.5L1984 224L1982 228.5L1982 235L1981 236.5L1981 488L1982 489.5L1982 496L1984 500.5L1984 504L1986 507.5L1986 510L1987.5 511.5L1990.5 519L2001 533.5L2008 540.5L2021.5 550L2036.5 556.5L2039 556.5L2044.5 558.5L2049 558.5L2050.5 559.5L2373 559L2373.5 476.5L2371 474L2360.5 474L2359 475L2167.5 475L2166 474L2104.5 474L2103 475L2067.5 475L2064.5 473L2064.5 251.5L2065.5 250L2372 249.5L2373.5 248L2373 165.5L2052.5 165L2051 166L2045.5 166L2031.5 170L2018.5 176.5L2010 183L2007.5 186ZM1538.5 165.5L1537 170.5L1537 175L1536 176.5L1536 182L1532 193.5L1532 243L1531 244.5L1531 287L1532 288.5L1532 549L1531 550.5L1531 557L1532 559L1615.5 559L1615.5 297.5L1617 297L1620.5 299.5L1622 302.5L1630 311L1637 320.5L1641 324L1647 332.5L1657 343L1659 346.5L1666 354L1668 357.5L1672 361L1678 369.5L1688 380L1699 394.5L1703 398L1715 413.5L1719 417L1721 420.5L1724 423L1736 438.5L1740 442L1742 445.5L1745 448L1747 451.5L1750 454L1752 457.5L1755 460L1757 463.5L1765 472L1767 475.5L1771 479L1773 482.5L1776 485L1778 488.5L1781 491L1783 494.5L1786 497L1788 500.5L1796 509L1803 518.5L1807 522L1809 525.5L1813 529L1819 537.5L1823 541L1829 549.5L1837.5 559L1924 559.5L1924.5 165.5L1841.5 165L1840 166.5L1840 424L1838.5 426.5L1837.5 426.5L1829.5 417.5L1823.5 409L1819.5 405.5L1817.5 402L1814.5 399.5L1802.5 384L1798.5 380.5L1792.5 372L1788.5 368.5L1786.5 365L1783.5 362.5L1771.5 347L1767.5 343.5L1761.5 335L1757.5 331.5L1755.5 328L1752.5 325.5L1750.5 322L1747.5 319.5L1745.5 316L1742.5 313.5L1740.5 310L1737.5 307.5L1725.5 292L1721.5 288.5L1719.5 285L1716.5 282.5L1714.5 279L1711.5 276.5L1699.5 261L1695.5 257.5L1693.5 254L1690.5 251.5L1678.5 236L1674.5 232.5L1667.5 223L1663.5 219.5L1657.5 211L1653.5 207.5L1651.5 204L1648.5 201.5L1646.5 198L1643.5 195.5L1641.5 192L1632.5 182.5L1630.5 179L1619 165.5ZM0.5 165.5L0 169L2 171.5L4 180L12 199.5L13 205L15 208.5L21 227L27 241.5L27 244L31 252.5L44 291L48 299.5L51 310L54 315.5L54 318L58 326.5L58 329L66 348.5L66 351L72 365.5L75 376L85 400.5L85 403L89 411.5L89 414L93 422.5L93 425L101 444.5L101 447L103 450.5L106 461L110 469.5L114 483L118 491.5L118 494L120 496.5L122 505L132 530.5L136 544L142.5 559.5L207 559L299 307L303 311.5L305 319L309 327.5L309 330L313 338.5L313 341L315.5 347L317 348.5L319 357L321 359.5L321 362L325 370.5L325 373L327 376.5L330 387L334 395.5L334 398L336 401.5L338 409L344 422.5L344 425L348 433.5L348 436L350 438.5L352 447L356 455.5L358 463L367 485.5L367 488L371 496.5L371 499L373 501.5L375 510L381 523.5L383 532L387 540.5L393.5 559L458.5 559L470.5 524.5L472.5 521L474.5 513.5L476.5 510L478.5 502.5L480.5 499L483.5 488.5L485.5 485L487.5 477.5L489.5 474L491.5 466.5L493.5 463L495.5 455.5L497.5 452L499.5 444.5L501.5 441L503.5 433.5L505.5 430L507.5 422.5L509.5 419L526.5 370.5L528.5 367L530.5 359.5L532.5 356L543.5 323.5L545.5 320L547.5 312.5L549.5 309L551.5 301.5L553.5 298L555.5 290.5L560.5 279L562.5 271.5L564.5 268L566.5 260.5L568.5 257L570.5 249.5L572.5 246L574.5 238.5L576.5 235L578.5 227.5L588.5 202L601 165.5L514.5 165L512 166.5L512 169L508 177.5L508 180L500 199.5L499 205L495 213.5L495 216L493 218.5L491 227L489 229.5L489 232L485 240.5L483 249L481 251.5L481 254L470 281.5L468 289L466 292.5L466 295L462 303.5L462 306L458 314.5L458 317L454 325.5L454 328L450 336.5L450 339L441 361.5L441 364L437 372.5L437 375L435 377.5L435 380L431 390L426 398.5L424.5 398L416.5 374.5L412.5 366L398.5 325.5L393.5 314L387.5 295.5L379.5 276L373.5 257.5L371.5 254L366.5 238.5L364.5 235L352.5 200.5L350.5 197L348.5 189.5L339 165.5L261.5 165.5L259 171.5L259 174L257 176.5L257 179L253 187.5L253 190L251 193.5L249 201L244 212.5L244 215L240 223.5L240 226L238 228.5L236 237L234 239.5L234 242L230 250.5L230 253L228 255.5L226 264L224 266.5L218 285L214 293.5L209 310L207 313.5L207 316L201 330.5L201 333L199 335.5L197 344L186 371.5L186 374L178 392.5L178 395L175 398.5L173.5 398.5L172.5 397L166.5 378.5L161.5 367L151.5 337.5L146.5 326L140.5 307.5L135.5 296L121.5 255.5L116.5 244L114.5 236.5L112.5 233L110.5 225.5L108.5 222L106.5 214.5L104.5 211L102.5 203.5L100.5 200L88 165.5ZM1462 76.5L1440.5 49L1415.5 25L1396 10.5L1391.5 8.5L1386 4.5L1376 0L1367.5 0.5L1367 3L1368 4.5L1368 11L1370 16.5L1370 22L1372 26.5L1372 31L1373 32.5L1373 37L1375 43.5L1375 48L1377 53.5L1377 58L1380 68.5L1380 74L1383 83.5L1383 88L1385 92.5L1385 99L1387 103.5L1387 109L1391 123.5L1391 128L1393 132.5L1393 138L1395 142.5L1396 157L1393 161L1390 163L1382.5 171L1374 177L1370.5 181L1339 203.5L1300 225L1292.5 225L1291 224L1283.5 224L1277 222L1269.5 222L1268 221L1252.5 219L1246 217L1240.5 217L1239 216L1228.5 214L1224 212L1221.5 212L1217 210L1214.5 210L1207 207L1204.5 207L1201 205L1196.5 204L1192 201L1189.5 194L1189.5 187.5L1187.5 182L1187.5 176.5L1184.5 168L1184.5 162.5L1182.5 157L1182.5 151.5L1179.5 142L1179.5 138.5L1177.5 134L1177.5 128.5L1175.5 123L1175.5 117.5L1172.5 108L1172.5 102.5L1170.5 97L1170.5 91.5L1167.5 83L1167.5 78.5L1165.5 73L1165.5 66.5L1162.5 59L1162.5 54.5L1160 48.5L1157.5 48L1153.5 49.5L1150 52L1145 58L1134.5 73.5L1134 76L1132.5 77.5L1132 80L1130.5 81.5L1120 103.5L1111 128.5L1111 131L1109 134.5L1109 139L1107 142.5L1107 147L1105 150.5L1105 157L1103 161.5L1103 167L1102 168.5L1102 174L1101 175.5L1100 200L1101 201.5L1101 212L1103 218.5L1103 227L1105 231.5L1105 237L1107 240.5L1107 245L1109 248.5L1111 257L1117 272L1126.5 290L1134.5 300L1140 300.5L1159.5 295.5L1165 295.5L1170.5 293.5L1176 293.5L1185.5 290.5L1191 290.5L1196.5 288.5L1202 288.5L1211.5 285.5L1217 285.5L1218.5 284.5L1228 283.5L1238.5 280.5L1244 280.5L1249.5 278.5L1255 278.5L1260.5 276.5L1270 275.5L1275.5 273.5L1282 273.5L1287.5 271.5L1292 271.5L1302.5 268.5L1308 268.5L1313.5 266.5L1319 266.5L1327.5 263.5L1334 263.5L1339.5 261.5L1345 261.5L1355.5 258.5L1361 258.5L1367.5 256.5L1372 256.5L1381.5 253.5L1386 253.5L1390.5 251.5L1395 251.5L1410.5 246.5L1414 246.5L1417.5 244.5L1420 244.5L1427.5 241.5L1433 240.5L1436.5 238.5L1439 238.5L1452.5 233.5L1455 233.5L1458.5 231.5L1461 231.5L1492 219L1492.5 214.5L1494.5 209L1495.5 196.5L1496.5 195L1496.5 167.5L1494.5 160L1494.5 153.5L1492.5 147L1492.5 142.5L1489.5 135L1487.5 125.5L1480.5 108.5L1478 105L1475 97.5L1464 81Z"/></svg>
